<?xml version="1.0" encoding="UTF-8" standalone="no"?>
<!-- Created with Inkscape (http://www.inkscape.org/) -->

<svg
   xmlns:dc="http://purl.org/dc/elements/1.1/"
   xmlns:cc="http://creativecommons.org/ns#"
   xmlns:rdf="http://www.w3.org/1999/02/22-rdf-syntax-ns#"
   xmlns:svg="http://www.w3.org/2000/svg"
   xmlns="http://www.w3.org/2000/svg"
   xmlns:sodipodi="http://sodipodi.sourceforge.net/DTD/sodipodi-0.dtd"
   xmlns:inkscape="http://www.inkscape.org/namespaces/inkscape"
   id="svg2"
   version="1.1"
   inkscape:version="0.91 r13725"
   width="512"
   height="512"
   sodipodi:docname="inode-directory.svg"
   viewBox="0 0 512 512">
  <metadata
     id="metadata8">
    <rdf:RDF>
      <cc:Work
         rdf:about="">
        <dc:format>image/svg+xml</dc:format>
        <dc:type
           rdf:resource="http://purl.org/dc/dcmitype/StillImage" />
        <dc:title />
      </cc:Work>
    </rdf:RDF>
  </metadata>
  <defs
     id="defs6">
    <filter
       inkscape:collect="always"
       style="color-interpolation-filters:sRGB"
       id="filter4166"
       x="-0.028206532"
       width="1.0564131"
       y="-0.049744378"
       height="1.0994888">
      <feGaussianBlur
         inkscape:collect="always"
         stdDeviation="5.8998423"
         id="feGaussianBlur4168" />
    </filter>
  </defs>
  <sodipodi:namedview
     pagecolor="#ffffff"
     bordercolor="#666666"
     borderopacity="1"
     objecttolerance="10"
     gridtolerance="10"
     guidetolerance="10"
     inkscape:pageopacity="0"
     inkscape:pageshadow="2"
     inkscape:window-width="1920"
     inkscape:window-height="1148"
     id="namedview4"
     showgrid="false"
     inkscape:zoom="0.4609375"
     inkscape:cx="-208.61846"
     inkscape:cy="217.68496"
     inkscape:window-x="-8"
     inkscape:window-y="-8"
     inkscape:window-maximized="1"
     inkscape:current-layer="svg2"
     inkscape:document-units="px" />
  <path
     style="fill:#2980b9;fill-opacity:1;fill-rule:evenodd;stroke:#000000;stroke-width:0;stroke-linecap:butt;stroke-linejoin:miter;stroke-miterlimit:4;stroke-dasharray:none;stroke-opacity:1"
     d="m 411.6225,48.964232 c 0,-7.824275 -6.29784,-14.123816 -14.12211,-14.123816 l -37.32867,0 -120.13243,0 -121.5455,0 -7.30708,0 c -5.98757,0 -10.80737,4.819796 -10.80737,10.807375 l 0,408.499319 c 0,5.98757 4.8198,10.80907 10.80737,10.80907 l 128.85257,0 0,-0.002 120.13243,0 c 11.78329,0 21.26915,-9.48585 21.26915,-21.26914 l 0,-218.96832 c 0,-5.81617 0.68519,-8.11397 4.18889,-11.8386 l 21.76889,-21.96772 c 0.0762,-0.0748 0.15024,-0.15164 0.22473,-0.22814 l 0.0426,-0.0443 -0.002,-0.002 c 2.44894,-2.53734 3.95828,-5.98807 3.95828,-9.80972 z"
     id="rect2982-2"
     inkscape:connector-curvature="0"
     sodipodi:nodetypes="sscccssssccssccccccss" />
  <path
     style="opacity:0.3;fill:#000000;fill-opacity:1;fill-rule:evenodd;stroke:#000000;stroke-width:0;stroke-linecap:butt;stroke-linejoin:miter;stroke-miterlimit:4;stroke-dasharray:none;stroke-opacity:1;filter:url(#filter4166)"
     d="m 28.241425,148.07206 c -12.87594,0 -23.24141,9.6069 -23.24141,21.54052 l 16,244.76159 0,7.4003 c 0,6.06398 5.26673,10.94526 11.80953,10.94526 l 446.379045,0 c 6.54281,0 11.81139,-4.88128 11.81139,-10.94526 l 15.998,-252.16189 c 0,-11.93362 -10.36547,-21.54052 -23.24141,-21.54052 l -455.515295,0 z"
     id="rect2982-5"
     inkscape:connector-curvature="0"
     sodipodi:nodetypes="cccsssccscc"
     transform="matrix(0,0.88626203,-0.86265191,0,506.51058,37.686784)" />
  <path
     style="fill:#4aaee8;fill-opacity:1;fill-rule:evenodd;stroke:#000000;stroke-width:0;stroke-linecap:butt;stroke-linejoin:miter;stroke-miterlimit:4;stroke-dasharray:none;stroke-opacity:1"
     d="m 351.53436,42.165632 c 0,-11.783285 -8.79166,-21.269144 -19.7126,-21.269144 l -223.99111,14.642239 -6.77231,0 c -5.549386,0 -10.016434,4.819796 -10.016434,10.807375 l 0,408.499318 c 0,5.98757 4.467048,10.80907 10.016434,10.80907 l 230.76343,14.64041 c 10.92094,0 19.71259,-9.48585 19.71259,-21.26914 l 0,-416.860264 z"
     id="rect2982"
     inkscape:connector-curvature="0"
     sodipodi:nodetypes="cccsssccscc" />
</svg>
